<mxfile host="65bd71144e">
    <diagram id="HbvoJWQWCPXJkxOXJ8jQ" name="Page-1">
        <mxGraphModel dx="1418" dy="1145" grid="1" gridSize="10" guides="1" tooltips="1" connect="1" arrows="1" fold="1" page="1" pageScale="1" pageWidth="850" pageHeight="1100" background="none" math="0" shadow="0">
            <root>
                <mxCell id="0"/>
                <mxCell id="1" parent="0"/>
                <mxCell id="22" value="" style="group;fontSize=13;" parent="1" vertex="1" connectable="0">
                    <mxGeometry x="40" y="180" width="220" height="300" as="geometry"/>
                </mxCell>
                <mxCell id="19" value="&lt;b&gt;&amp;lt;&amp;lt;device&amp;gt;&amp;gt;&lt;/b&gt;&lt;br style=&quot;font-size: 13px&quot;&gt;Mobile device" style="shape=cube;whiteSpace=wrap;html=1;boundedLbl=1;backgroundOutline=1;darkOpacity=0.05;darkOpacity2=0.1;size=10;fillColor=#f5f5f5;strokeColor=#666666;rotation=0;flipV=0;flipH=1;verticalAlign=top;fontSize=13;fontColor=#333333;" parent="22" vertex="1">
                    <mxGeometry width="220" height="300" as="geometry"/>
                </mxCell>
                <mxCell id="20" value="&lt;b&gt;&amp;lt;&amp;lt;env&amp;gt;&amp;gt;&lt;/b&gt;&lt;br style=&quot;font-size: 13px&quot;&gt;Mobile OS" style="shape=cube;whiteSpace=wrap;html=1;boundedLbl=1;backgroundOutline=1;darkOpacity=0.05;darkOpacity2=0.1;size=10;rotation=0;flipV=0;flipH=1;verticalAlign=top;fontSize=13;" parent="22" vertex="1">
                    <mxGeometry x="30" y="60" width="160" height="220" as="geometry"/>
                </mxCell>
                <mxCell id="21" value="Browser&#10;" style="shape=module;align=left;spacingLeft=20;align=center;verticalAlign=middle;fillColor=#FFFFFF;fontSize=13;" parent="22" vertex="1">
                    <mxGeometry x="50" y="210" width="100" height="50" as="geometry"/>
                </mxCell>
                <mxCell id="29" value="Web App" style="shape=module;align=left;spacingLeft=20;align=center;verticalAlign=middle;fillColor=#FFFFFF;fontSize=13;" parent="22" vertex="1">
                    <mxGeometry x="50" y="120" width="100" height="50" as="geometry"/>
                </mxCell>
                <mxCell id="31" value="" style="endArrow=none;html=1;endSize=12;startArrow=diamondThin;startSize=14;startFill=1;align=left;verticalAlign=bottom;endFill=0;rounded=0;entryX=0.5;entryY=1;entryDx=0;entryDy=0;exitX=0.5;exitY=0;exitDx=0;exitDy=0;fontSize=13;" parent="22" edge="1">
                    <mxGeometry x="-0.625" y="70" relative="1" as="geometry">
                        <mxPoint x="107" y="210" as="sourcePoint"/>
                        <mxPoint x="107" y="170" as="targetPoint"/>
                        <mxPoint as="offset"/>
                    </mxGeometry>
                </mxCell>
                <mxCell id="27" value="&lt;b&gt;&amp;lt;&amp;lt;cloud&amp;gt;&amp;gt;&lt;/b&gt;&lt;br style=&quot;font-size: 13px&quot;&gt;CDN" style="shape=cube;whiteSpace=wrap;html=1;boundedLbl=1;backgroundOutline=1;darkOpacity=0.05;darkOpacity2=0.1;size=10;fillColor=#fff2cc;strokeColor=#d6b656;rotation=0;flipV=0;flipH=1;verticalAlign=top;fontSize=13;" parent="1" vertex="1">
                    <mxGeometry x="298.5" y="644" width="212" height="176" as="geometry"/>
                </mxCell>
                <mxCell id="33" value="" style="group;fontSize=13;" parent="1" vertex="1" connectable="0">
                    <mxGeometry x="40" y="520" width="220" height="300" as="geometry"/>
                </mxCell>
                <mxCell id="34" value="&lt;b&gt;&amp;lt;&amp;lt;device&amp;gt;&amp;gt;&lt;/b&gt;&lt;br style=&quot;font-size: 13px&quot;&gt;PC" style="shape=cube;whiteSpace=wrap;html=1;boundedLbl=1;backgroundOutline=1;darkOpacity=0.05;darkOpacity2=0.1;size=10;fillColor=#f5f5f5;strokeColor=#666666;rotation=0;flipV=0;flipH=1;verticalAlign=top;fontSize=13;fontColor=#333333;" parent="33" vertex="1">
                    <mxGeometry width="220" height="300" as="geometry"/>
                </mxCell>
                <mxCell id="35" value="&lt;b&gt;&amp;lt;&amp;lt;env&amp;gt;&amp;gt;&lt;/b&gt;&lt;br style=&quot;font-size: 13px&quot;&gt;Desktop OS" style="shape=cube;whiteSpace=wrap;html=1;boundedLbl=1;backgroundOutline=1;darkOpacity=0.05;darkOpacity2=0.1;size=10;rotation=0;flipV=0;flipH=1;verticalAlign=top;fontSize=13;" parent="33" vertex="1">
                    <mxGeometry x="30" y="60" width="160" height="220" as="geometry"/>
                </mxCell>
                <mxCell id="36" value="Browser&#10;" style="shape=module;align=left;spacingLeft=20;align=center;verticalAlign=middle;fillColor=#FFFFFF;fontSize=13;" parent="33" vertex="1">
                    <mxGeometry x="50" y="210" width="100" height="50" as="geometry"/>
                </mxCell>
                <mxCell id="37" value="Web App" style="shape=module;align=left;spacingLeft=20;align=center;verticalAlign=middle;fillColor=#FFFFFF;fontSize=13;" parent="33" vertex="1">
                    <mxGeometry x="50" y="120" width="100" height="50" as="geometry"/>
                </mxCell>
                <mxCell id="38" value="" style="endArrow=none;html=1;endSize=12;startArrow=diamondThin;startSize=14;startFill=1;align=left;verticalAlign=bottom;endFill=0;rounded=0;entryX=0.5;entryY=1;entryDx=0;entryDy=0;exitX=0.5;exitY=0;exitDx=0;exitDy=0;fontSize=13;" parent="33" edge="1">
                    <mxGeometry x="-0.625" y="70" relative="1" as="geometry">
                        <mxPoint x="107" y="210" as="sourcePoint"/>
                        <mxPoint x="107" y="170" as="targetPoint"/>
                        <mxPoint as="offset"/>
                    </mxGeometry>
                </mxCell>
                <mxCell id="39" value="" style="endArrow=none;html=1;rounded=0;fontSize=13;edgeStyle=orthogonalEdgeStyle;exitX=0.6;exitY=0.997;exitDx=0;exitDy=0;exitPerimeter=0;" parent="1" source="21" edge="1">
                    <mxGeometry width="50" height="50" relative="1" as="geometry">
                        <mxPoint x="150" y="441" as="sourcePoint"/>
                        <mxPoint x="280" y="755" as="targetPoint"/>
                        <Array as="points">
                            <mxPoint x="150" y="501"/>
                            <mxPoint x="280" y="501"/>
                        </Array>
                    </mxGeometry>
                </mxCell>
                <mxCell id="40" value="" style="endArrow=none;html=1;rounded=0;exitX=1;exitY=0.5;exitDx=0;exitDy=0;entryX=0;entryY=0.5;entryDx=0;entryDy=0;fontSize=13;edgeStyle=orthogonalEdgeStyle;" parent="1" edge="1">
                    <mxGeometry width="50" height="50" relative="1" as="geometry">
                        <mxPoint x="190" y="756" as="sourcePoint"/>
                        <mxPoint x="324.5" y="755" as="targetPoint"/>
                        <Array as="points">
                            <mxPoint x="190" y="755"/>
                        </Array>
                    </mxGeometry>
                </mxCell>
                <mxCell id="42" value="&lt;b&gt;&amp;lt;&amp;lt;artifact&amp;gt;&amp;gt;&lt;/b&gt;&lt;br style=&quot;padding: 0px ; margin: 0px&quot;&gt;&lt;br style=&quot;padding: 0px ; margin: 0px&quot;&gt;&lt;span&gt;Static Assets&lt;/span&gt;&lt;br style=&quot;padding: 0px ; margin: 0px&quot;&gt;&lt;span&gt;service-worker.js&lt;/span&gt;&lt;br style=&quot;padding: 0px ; margin: 0px&quot;&gt;&lt;span&gt;manifest.json&lt;/span&gt;" style="rounded=0;whiteSpace=wrap;html=1;fontSize=13;fillColor=#FFFFFF;" vertex="1" parent="1">
                    <mxGeometry x="324.5" y="709" width="160" height="90" as="geometry"/>
                </mxCell>
                <mxCell id="45" value="&lt;b&gt;&amp;lt;&amp;lt;cloud&amp;gt;&amp;gt;&lt;/b&gt;&lt;br style=&quot;font-size: 13px&quot;&gt;Cloud Services" style="shape=cube;whiteSpace=wrap;html=1;boundedLbl=1;backgroundOutline=1;darkOpacity=0.05;darkOpacity2=0.1;size=10;rotation=0;flipV=0;flipH=1;verticalAlign=top;fontSize=13;fillColor=#fff2cc;strokeColor=#d6b656;" vertex="1" parent="1">
                    <mxGeometry x="350" y="50" width="950" height="580" as="geometry"/>
                </mxCell>
                <mxCell id="46" value="&lt;b&gt;&amp;lt;&amp;lt;service&amp;gt;&amp;gt;&lt;/b&gt;&lt;br&gt;Firewall" style="rounded=0;whiteSpace=wrap;html=1;fontSize=13;fillColor=#FFFFFF;" vertex="1" parent="1">
                    <mxGeometry x="380" y="330" width="120" height="60" as="geometry"/>
                </mxCell>
                <mxCell id="47" value="&lt;b&gt;&amp;lt;&amp;lt;service&amp;gt;&amp;gt;&lt;/b&gt;&lt;br&gt;Load Balancer" style="rounded=0;whiteSpace=wrap;html=1;fontSize=13;fillColor=#FFFFFF;" vertex="1" parent="1">
                    <mxGeometry x="530" y="330" width="120" height="60" as="geometry"/>
                </mxCell>
                <mxCell id="48" value="" style="group;fontSize=13;" vertex="1" connectable="0" parent="1">
                    <mxGeometry x="670" y="60" width="240" height="270" as="geometry"/>
                </mxCell>
                <mxCell id="50" value="&lt;b&gt;&amp;lt;&amp;lt;env&amp;gt;&amp;gt;&lt;/b&gt;&lt;br style=&quot;font-size: 13px&quot;&gt;Linux Instance" style="shape=cube;whiteSpace=wrap;html=1;boundedLbl=1;backgroundOutline=1;darkOpacity=0.05;darkOpacity2=0.1;size=10;fillColor=#dae8fc;strokeColor=#6c8ebf;rotation=0;flipV=0;flipH=1;verticalAlign=top;fontSize=13;" vertex="1" parent="48">
                    <mxGeometry x="32.72727272727272" y="54" width="174.54545454545453" height="198.00000000000003" as="geometry"/>
                </mxCell>
                <mxCell id="52" value="Application Server" style="shape=module;align=left;spacingLeft=20;align=center;verticalAlign=middle;fillColor=#FFFFFF;fontSize=13;" vertex="1" parent="48">
                    <mxGeometry x="40" y="108" width="140" height="45" as="geometry"/>
                </mxCell>
                <mxCell id="53" value="" style="endArrow=none;html=1;endSize=12;startArrow=openThin;startSize=6;startFill=0;align=left;verticalAlign=bottom;endFill=0;rounded=0;entryX=0.5;entryY=1;entryDx=0;entryDy=0;fontSize=13;exitX=0.546;exitY=0.003;exitDx=0;exitDy=0;exitPerimeter=0;dashed=1;" edge="1" parent="48" source="81">
                    <mxGeometry x="-0.625" y="70" relative="1" as="geometry">
                        <mxPoint x="117" y="170" as="sourcePoint"/>
                        <mxPoint x="116.72727272727272" y="153.00000000000003" as="targetPoint"/>
                        <mxPoint as="offset"/>
                    </mxGeometry>
                </mxCell>
                <mxCell id="80" value="" style="group" vertex="1" connectable="0" parent="48">
                    <mxGeometry x="60" y="182.95" width="103.5" height="57.05" as="geometry"/>
                </mxCell>
                <mxCell id="81" value="&lt;b&gt;&amp;lt;&amp;lt;artifact&amp;gt;&amp;gt;&lt;/b&gt;&lt;br&gt;eMall Service" style="rounded=0;whiteSpace=wrap;html=1;fontSize=13;fillColor=#FFFFFF;" vertex="1" parent="80">
                    <mxGeometry width="103.5" height="57.05" as="geometry"/>
                </mxCell>
                <mxCell id="82" value="" style="shape=note;whiteSpace=wrap;html=1;backgroundOutline=1;darkOpacity=0.05;fontSize=13;fillColor=#FFFFFF;size=5;" vertex="1" parent="80">
                    <mxGeometry x="87.2007874015748" y="2.445" width="13.854330708661417" height="13.854999999999999" as="geometry"/>
                </mxCell>
                <mxCell id="54" value="" style="group;fontSize=13;" vertex="1" connectable="0" parent="1">
                    <mxGeometry x="1060" y="190" width="240" height="270" as="geometry"/>
                </mxCell>
                <mxCell id="55" value="&lt;b&gt;&amp;lt;&amp;lt;env&amp;gt;&amp;gt;&lt;/b&gt;&lt;br style=&quot;font-size: 13px&quot;&gt;Linux Instance" style="shape=cube;whiteSpace=wrap;html=1;boundedLbl=1;backgroundOutline=1;darkOpacity=0.05;darkOpacity2=0.1;size=10;fillColor=#d5e8d4;strokeColor=#82b366;rotation=0;flipV=0;flipH=1;verticalAlign=top;fontSize=13;" vertex="1" parent="54">
                    <mxGeometry x="32.73" y="70" width="174.55" height="140" as="geometry"/>
                </mxCell>
                <mxCell id="56" value="DBMS" style="shape=module;align=left;spacingLeft=20;align=center;verticalAlign=middle;fillColor=#FFFFFF;fontSize=13;" vertex="1" parent="54">
                    <mxGeometry x="54.54545454545454" y="146" width="109.09090909090908" height="45" as="geometry"/>
                </mxCell>
                <mxCell id="61" value="&lt;b&gt;&amp;lt;&amp;lt;service&amp;gt;&amp;gt;&lt;/b&gt;&lt;br&gt;Firewall" style="rounded=0;whiteSpace=wrap;html=1;fontSize=13;fillColor=#FFFFFF;" vertex="1" parent="1">
                    <mxGeometry x="930" y="330" width="120" height="60" as="geometry"/>
                </mxCell>
                <mxCell id="67" value="" style="endArrow=none;dashed=1;html=1;rounded=0;fontSize=13;strokeWidth=5;dashPattern=1 2;" edge="1" parent="1">
                    <mxGeometry width="50" height="50" relative="1" as="geometry">
                        <mxPoint x="789.55" y="400" as="sourcePoint"/>
                        <mxPoint x="789.55" y="330" as="targetPoint"/>
                    </mxGeometry>
                </mxCell>
                <mxCell id="91" value="" style="group;fontSize=13;" vertex="1" connectable="0" parent="1">
                    <mxGeometry x="670" y="362" width="240" height="270" as="geometry"/>
                </mxCell>
                <mxCell id="92" value="&lt;b&gt;&amp;lt;&amp;lt;env&amp;gt;&amp;gt;&lt;/b&gt;&lt;br style=&quot;font-size: 13px&quot;&gt;Linux Instance" style="shape=cube;whiteSpace=wrap;html=1;boundedLbl=1;backgroundOutline=1;darkOpacity=0.05;darkOpacity2=0.1;size=10;fillColor=#dae8fc;strokeColor=#6c8ebf;rotation=0;flipV=0;flipH=1;verticalAlign=top;fontSize=13;" vertex="1" parent="91">
                    <mxGeometry x="32.72727272727272" y="54" width="174.54545454545453" height="198.00000000000003" as="geometry"/>
                </mxCell>
                <mxCell id="93" value="Application Server" style="shape=module;align=left;spacingLeft=20;align=center;verticalAlign=middle;fillColor=#FFFFFF;fontSize=13;" vertex="1" parent="91">
                    <mxGeometry x="40" y="108" width="140" height="45" as="geometry"/>
                </mxCell>
                <mxCell id="94" value="" style="endArrow=none;html=1;endSize=12;startArrow=openThin;startSize=6;startFill=0;align=left;verticalAlign=bottom;endFill=0;rounded=0;entryX=0.5;entryY=1;entryDx=0;entryDy=0;fontSize=13;exitX=0.546;exitY=0.003;exitDx=0;exitDy=0;exitPerimeter=0;dashed=1;" edge="1" parent="91" source="96">
                    <mxGeometry x="-0.625" y="70" relative="1" as="geometry">
                        <mxPoint x="117" y="170" as="sourcePoint"/>
                        <mxPoint x="116.72727272727272" y="153.00000000000003" as="targetPoint"/>
                        <mxPoint as="offset"/>
                    </mxGeometry>
                </mxCell>
                <mxCell id="95" value="" style="group" vertex="1" connectable="0" parent="91">
                    <mxGeometry x="60" y="182.95" width="103.5" height="57.05" as="geometry"/>
                </mxCell>
                <mxCell id="96" value="&lt;b&gt;&amp;lt;&amp;lt;artifact&amp;gt;&amp;gt;&lt;/b&gt;&lt;br&gt;eMall Service" style="rounded=0;whiteSpace=wrap;html=1;fontSize=13;fillColor=#FFFFFF;" vertex="1" parent="95">
                    <mxGeometry width="103.5" height="57.05" as="geometry"/>
                </mxCell>
                <mxCell id="97" value="" style="shape=note;whiteSpace=wrap;html=1;backgroundOutline=1;darkOpacity=0.05;fontSize=13;fillColor=#FFFFFF;size=5;" vertex="1" parent="95">
                    <mxGeometry x="87.2007874015748" y="2.445" width="13.854330708661417" height="13.854999999999999" as="geometry"/>
                </mxCell>
                <mxCell id="98" value="" style="endArrow=none;html=1;rounded=0;fontSize=13;startSize=6;strokeWidth=1;entryX=0;entryY=0.5;entryDx=0;entryDy=0;exitX=1;exitY=0.5;exitDx=0;exitDy=0;" edge="1" parent="1" source="29" target="46">
                    <mxGeometry width="50" height="50" relative="1" as="geometry">
                        <mxPoint x="160" y="90" as="sourcePoint"/>
                        <mxPoint x="210" y="40" as="targetPoint"/>
                    </mxGeometry>
                </mxCell>
                <mxCell id="106" value="" style="endArrow=none;html=1;rounded=0;fontSize=13;startSize=6;strokeWidth=1;entryX=0;entryY=0.5;entryDx=0;entryDy=0;exitX=1;exitY=0.5;exitDx=0;exitDy=0;" edge="1" parent="1" source="37" target="46">
                    <mxGeometry width="50" height="50" relative="1" as="geometry">
                        <mxPoint x="200" y="335" as="sourcePoint"/>
                        <mxPoint x="390" y="370" as="targetPoint"/>
                    </mxGeometry>
                </mxCell>
                <mxCell id="107" value="" style="endArrow=none;html=1;rounded=0;fontSize=13;startSize=6;strokeWidth=1;entryX=0;entryY=0.5;entryDx=0;entryDy=0;exitX=1;exitY=0.5;exitDx=0;exitDy=0;" edge="1" parent="1" source="46" target="47">
                    <mxGeometry width="50" height="50" relative="1" as="geometry">
                        <mxPoint x="210" y="345" as="sourcePoint"/>
                        <mxPoint x="400" y="380" as="targetPoint"/>
                    </mxGeometry>
                </mxCell>
                <mxCell id="109" value="" style="endArrow=none;html=1;rounded=0;fontSize=13;startSize=6;strokeWidth=1;exitX=1;exitY=0.5;exitDx=0;exitDy=0;" edge="1" parent="1" source="47">
                    <mxGeometry width="50" height="50" relative="1" as="geometry">
                        <mxPoint x="650" y="380" as="sourcePoint"/>
                        <mxPoint x="710" y="191" as="targetPoint"/>
                        <Array as="points">
                            <mxPoint x="690" y="191"/>
                        </Array>
                    </mxGeometry>
                </mxCell>
                <mxCell id="110" value="" style="endArrow=none;html=1;rounded=0;fontSize=13;startSize=6;strokeWidth=1;exitX=1;exitY=0.5;exitDx=0;exitDy=0;" edge="1" parent="1" source="47">
                    <mxGeometry width="50" height="50" relative="1" as="geometry">
                        <mxPoint x="230" y="365" as="sourcePoint"/>
                        <mxPoint x="710" y="497" as="targetPoint"/>
                        <Array as="points">
                            <mxPoint x="690" y="497"/>
                        </Array>
                    </mxGeometry>
                </mxCell>
                <mxCell id="111" value="" style="endArrow=none;html=1;rounded=0;fontSize=13;startSize=6;strokeWidth=1;exitX=0;exitY=0.5;exitDx=0;exitDy=0;entryX=1;entryY=0.5;entryDx=0;entryDy=0;" edge="1" parent="1" source="61" target="52">
                    <mxGeometry width="50" height="50" relative="1" as="geometry">
                        <mxPoint x="660" y="370" as="sourcePoint"/>
                        <mxPoint x="720" y="201" as="targetPoint"/>
                        <Array as="points">
                            <mxPoint x="880" y="191"/>
                        </Array>
                    </mxGeometry>
                </mxCell>
                <mxCell id="113" value="" style="endArrow=none;html=1;rounded=0;fontSize=13;startSize=6;strokeWidth=1;entryX=1;entryY=0.5;entryDx=0;entryDy=0;exitX=0;exitY=0.5;exitDx=0;exitDy=0;" edge="1" parent="1" source="61" target="93">
                    <mxGeometry width="50" height="50" relative="1" as="geometry">
                        <mxPoint x="940" y="370" as="sourcePoint"/>
                        <mxPoint x="860" y="200.5" as="targetPoint"/>
                        <Array as="points">
                            <mxPoint x="880" y="493"/>
                        </Array>
                    </mxGeometry>
                </mxCell>
                <mxCell id="114" value="" style="endArrow=none;html=1;rounded=0;fontSize=13;startSize=6;strokeWidth=1;exitX=1;exitY=0.5;exitDx=0;exitDy=0;" edge="1" parent="1" source="61" target="56">
                    <mxGeometry width="50" height="50" relative="1" as="geometry">
                        <mxPoint x="950" y="380" as="sourcePoint"/>
                        <mxPoint x="870" y="210.5" as="targetPoint"/>
                        <Array as="points"/>
                    </mxGeometry>
                </mxCell>
            </root>
        </mxGraphModel>
    </diagram>
</mxfile>